<?xml version="1.0" standalone="yes"?>
<!DOCTYPE svg PUBLIC "-//W3C//DTD SVG 1.1//EN"
 "http://www.w3.org/Graphics/SVG/1.1/DTD/svg11.dtd">
<svg xmlns="http://www.w3.org/2000/svg" version="1.1"
  width="100%" height="100%" viewBox="0 0 1024 768"
  style="fill: none; font-family: Helvetica;
 font: Helvetica;
">

<!-- Creator: NGspice -->

<rect x="0" y="0" width="1024" height="768" fill="black" stroke="none"/>
<text stroke="none" fill="white" font-size="16" x="358" y="752">
v-sweep
</text>
<text stroke="none" fill="white" font-size="16" x="10" y="16">
dc1: 4x250um GaN HEMT: Ids vs Vds
</text>
<path stroke="white" d="M70 704l0 -637"/>
<text stroke="none" fill="white" font-size="16" x="55" y="728">
0.0
</text>
<path stroke="white" stroke-dasharray="1,2" d="M180 704l0 -637"/>
<text stroke="none" fill="white" font-size="16" x="165" y="728">
5.0
</text>
<path stroke="white" stroke-dasharray="1,2" d="M290 704l0 -637"/>
<text stroke="none" fill="white" font-size="16" x="270" y="728">
10.0
</text>
<path stroke="white" stroke-dasharray="1,2" d="M400 704l0 -637"/>
<text stroke="none" fill="white" font-size="16" x="380" y="728">
15.0
</text>
<path stroke="white" stroke-dasharray="1,2" d="M510 704l0 -637"/>
<text stroke="none" fill="white" font-size="16" x="490" y="728">
20.0
</text>
<path stroke="white" stroke-dasharray="1,2" d="M620 704l0 -637"/>
<text stroke="none" fill="white" font-size="16" x="600" y="728">
25.0
</text>
<path stroke="white" stroke-dasharray="1,2" d="M730 704l0 -637"/>
<text stroke="none" fill="white" font-size="16" x="710" y="728">
30.0
</text>
<path stroke="white" stroke-dasharray="1,2" d="M840 704l0 -637"/>
<text stroke="none" fill="white" font-size="16" x="820" y="728">
35.0
</text>
<path stroke="white" stroke-dasharray="1,2" d="M950 704l0 -637"/>
<text stroke="none" fill="white" font-size="16" x="930" y="728">
40.0
</text>
<text stroke="none" fill="white" font-size="16" x="614" y="752">
V
</text>
<path stroke="white" d="M70 704l880 0"/>
<text stroke="none" fill="white" font-size="16" x="28" y="712">
-0.0
</text>
<path stroke="white" stroke-dasharray="1,2" d="M70 613l880 0"/>
<text stroke="none" fill="white" font-size="16" x="28" y="621">
50.0
</text>
<path stroke="white" stroke-dasharray="1,2" d="M70 522l880 0"/>
<text stroke="none" fill="white" font-size="16" x="18" y="530">
100.0
</text>
<path stroke="white" stroke-dasharray="1,2" d="M70 431l880 0"/>
<text stroke="none" fill="white" font-size="16" x="18" y="439">
150.0
</text>
<path stroke="white" stroke-dasharray="1,2" d="M70 340l880 0"/>
<text stroke="none" fill="white" font-size="16" x="18" y="348">
200.0
</text>
<path stroke="white" stroke-dasharray="1,2" d="M70 249l880 0"/>
<text stroke="none" fill="white" font-size="16" x="18" y="257">
250.0
</text>
<path stroke="white" stroke-dasharray="1,2" d="M70 158l880 0"/>
<text stroke="none" fill="white" font-size="16" x="18" y="166">
300.0
</text>
<path stroke="white" stroke-dasharray="1,2" d="M70 67l880 0"/>
<text stroke="none" fill="white" font-size="16" x="18" y="75">
350.0
</text>
<text stroke="none" fill="white" font-size="16" x="10" y="32">
mA
</text>
<path stroke="red" d="M440 23l44 0"/>
<text stroke="none" fill="white" font-size="16" x="494" y="32">
-i(vds)
</text>
<path stroke="red" d="M70 704l880 0M70 704l880 0M70 704l880 0M70 704l880 0M70 704l11 -1 242 0 11 1 275 0 11 -1 330 0M70 704l33 -3 143 0 11 1 88 0 11 1 209 0 11 -1 363 0 11 -1M70 704l11 -3 22 -4 11 0 11 -1 11 0 11 -1 55 0 11 1 22 0 11 1 11 0 11 1"/>
<path stroke="red" d="M268 698l33 0 11 1 44 0 11 1 165 0 11 -1 132 0 11 -1 99 0 11 -1 99 0 11 -1 44 0M70 704l11 -7 11 -5 33 -6 11 -1 11 0 22 -2 44 0 22 2 11 0 33 3 11 0 22 2 22 0 11 1 33 0 11 1 88 0 11 -1 55 0 11 -1 44 0 11 -1 33 0 11 -1 33 0"/>
<path stroke="red" d="M686 688l11 -1 22 0 11 -1 33 0 11 -1 22 0 11 -1 22 0 11 -1 22 0 11 -1 22 0 11 -1 22 0 11 -1 11 0M70 704l11 -12 11 -9 11 -6 11 -4 22 -6 11 -1 11 -2 33 -3 33 0 110 10 11 0 11 1 11 0 11 1 77 0 11 -1 22 0 11 -1 11 0 11 -1 11 0"/>
<path stroke="red" d="M532 670l11 -1 11 0 11 -1 11 0 22 -2 11 0 22 -2 11 0 22 -2 11 0 33 -3 11 0 44 -4 11 0 66 -6 11 0 99 -9M70 704l11 -17 11 -15 11 -11 11 -9 11 -6 11 -5 33 -9 22 -4 22 -2 22 0 121 11 77 0 11 -1 11 0 110 -10 11 -2 22 -2 11 -2"/>
<path stroke="red" d="M609 620l11 -1 11 -2 11 -1 11 -2 11 -1 11 -2 11 -1 22 -4 11 -1 33 -6 11 -1 187 -34M70 704l11 -22 11 -20 11 -17 11 -14 11 -12 11 -9 11 -7 11 -5 22 -8 22 -6 22 -4 22 -2 33 0 55 5 11 0 11 1 33 0 11 -1 11 0 55 -5 11 -2 11 -1"/>
<path stroke="red" d="M488 575l99 -18 11 -3 11 -2 11 -3 11 -2 11 -3 11 -2 11 -3 11 -2 33 -9 11 -2 55 -15 11 -2 110 -30 11 -2 44 -12M70 704l11 -25 11 -24 11 -23 11 -20 11 -17 11 -15 11 -12 11 -10 11 -8 11 -6 11 -5 33 -12 11 -3 22 -4 33 -3 77 0"/>
<path stroke="red" d="M367 517l11 -1 11 0 33 -3 11 -2 11 -1 33 -6 11 -3 22 -4 110 -30 11 -4 22 -6 11 -4 22 -6 11 -4 22 -6 11 -4 22 -6 11 -4 33 -9 11 -4 66 -18 11 -2 22 -6 11 -2 22 -6 11 -2M70 704l11 -28 11 -27 11 -26 11 -24 11 -23 11 -20 11 -18"/>
<path stroke="red" d="M147 538l11 -16 11 -13 11 -11 11 -9 11 -7 33 -15 22 -8 11 -3 11 -2 11 -3 11 -1 11 -2 77 -7 11 -2 11 -1 55 -10 77 -21 11 -4 22 -6 11 -4 11 -3 11 -4 11 -3 11 -4 11 -3 11 -4 11 -3 11 -4 11 -3 11 -4 44 -12 11 -4 11 -3 11 -2"/>
<path stroke="red" d="M774 337l33 -9 11 -2 11 -3 99 -18 11 -1 11 -2M70 704l11 -30 11 -29 11 -28 11 -27 11 -26 11 -25 11 -23 11 -22 11 -19 11 -17 11 -14 11 -11 11 -10 22 -14 33 -15 22 -8 22 -6 11 -2 11 -3 33 -6 11 -1 44 -8 11 -3 11 -2 11 -3 11 -2"/>
<path stroke="red" d="M466 350l55 -15 11 -4 22 -6 11 -4 22 -6 11 -4 22 -6 11 -4 66 -18 11 -2 11 -3 11 -2 11 -3 55 -10 11 -1 11 -2 11 -1 11 -2 66 -6 11 0 22 -2 11 0M70 704l11 -31 22 -60 11 -29 22 -56 11 -27 11 -25 11 -24 11 -22 11 -20 11 -18 11 -15"/>
<path stroke="red" d="M213 377l11 -13 11 -10 11 -8 11 -7 11 -6 22 -10 33 -12 44 -12 11 -2 11 -3 11 -2 11 -3 11 -2 11 -3 11 -2 22 -6 11 -2 132 -36 11 -2 11 -3 11 -2 11 -3 44 -8 11 -1 11 -2 11 -1 11 -2 33 -3 11 0 22 -2 22 0 11 -1 44 0 11 1 22 0"/>
<path stroke="red" d="M917 209l11 1 11 0 11 1M70 704l11 -31 11 -32 11 -30 11 -31 11 -30 22 -58 11 -28 11 -27 11 -26 11 -25 11 -23 11 -21 11 -19 11 -16 11 -13 11 -11 11 -9 11 -7 11 -6 11 -5 44 -16 22 -6 11 -4 11 -2 33 -9 11 -2 11 -3 11 -2 22 -6"/>
<path stroke="red" d="M477 206l11 -2 11 -3 11 -2 11 -3 11 -2 11 -3 33 -6 11 -3 11 -2 11 -1 22 -4 22 -2 11 -2 11 -1 11 0 22 -2 77 0 22 2 11 0 55 5 11 2 22 2 11 2 11 1 11 2 11 1M70 704l22 -64 44 -124 22 -60 11 -29 22 -56 22 -52 11 -23 11 -22 11 -20"/>
<path stroke="red" d="M246 254l11 -17 11 -14 11 -12 11 -9 11 -7 22 -10 11 -4 11 -3 11 -4 44 -12 11 -2 11 -3 11 -2 11 -3 88 -16 11 -1 11 -2 11 -1 11 -2 22 -2 11 0 11 -1 11 0 11 -1 22 0 11 1 11 0 11 1 11 0 44 4 11 2 11 1 22 4 11 1 77 14 11 3 33 6"/>
<path stroke="red" d="M928 163l11 3 11 2"/>
</svg>
