<?xml version="1.0" standalone="yes"?>
<!DOCTYPE svg PUBLIC "-//W3C//DTD SVG 1.1//EN"
 "http://www.w3.org/Graphics/SVG/1.1/DTD/svg11.dtd">
<svg xmlns="http://www.w3.org/2000/svg" version="1.1"
  width="100%" height="100%" viewBox="0 0 1024 768"
  style="fill: none; font-family: Helvetica;
 font: Helvetica;
">

<!-- Creator: NGspice -->

<rect x="0" y="0" width="1024" height="768" fill="black" stroke="none"/>
<text stroke="none" fill="white" font-size="16" x="358" y="752">
v-sweep
</text>
<text stroke="none" fill="white" font-size="16" x="10" y="16">
dc1: 4x200um GaN HEMT: Ids vs Vds
</text>
<path stroke="white" d="M70 704l0 -636"/>
<text stroke="none" fill="white" font-size="16" x="55" y="728">
0.0
</text>
<path stroke="white" stroke-dasharray="1,2" d="M180 704l0 -636"/>
<text stroke="none" fill="white" font-size="16" x="165" y="728">
5.0
</text>
<path stroke="white" stroke-dasharray="1,2" d="M290 704l0 -636"/>
<text stroke="none" fill="white" font-size="16" x="270" y="728">
10.0
</text>
<path stroke="white" stroke-dasharray="1,2" d="M400 704l0 -636"/>
<text stroke="none" fill="white" font-size="16" x="380" y="728">
15.0
</text>
<path stroke="white" stroke-dasharray="1,2" d="M510 704l0 -636"/>
<text stroke="none" fill="white" font-size="16" x="490" y="728">
20.0
</text>
<path stroke="white" stroke-dasharray="1,2" d="M620 704l0 -636"/>
<text stroke="none" fill="white" font-size="16" x="600" y="728">
25.0
</text>
<path stroke="white" stroke-dasharray="1,2" d="M730 704l0 -636"/>
<text stroke="none" fill="white" font-size="16" x="710" y="728">
30.0
</text>
<path stroke="white" stroke-dasharray="1,2" d="M840 704l0 -636"/>
<text stroke="none" fill="white" font-size="16" x="820" y="728">
35.0
</text>
<path stroke="white" stroke-dasharray="1,2" d="M950 704l0 -636"/>
<text stroke="none" fill="white" font-size="16" x="930" y="728">
40.0
</text>
<text stroke="none" fill="white" font-size="16" x="614" y="752">
V
</text>
<path stroke="white" d="M70 704l880 0"/>
<text stroke="none" fill="white" font-size="16" x="28" y="712">
-0.0
</text>
<path stroke="white" stroke-dasharray="1,2" d="M70 598l880 0"/>
<text stroke="none" fill="white" font-size="16" x="28" y="606">
50.0
</text>
<path stroke="white" stroke-dasharray="1,2" d="M70 492l880 0"/>
<text stroke="none" fill="white" font-size="16" x="18" y="500">
100.0
</text>
<path stroke="white" stroke-dasharray="1,2" d="M70 386l880 0"/>
<text stroke="none" fill="white" font-size="16" x="18" y="394">
150.0
</text>
<path stroke="white" stroke-dasharray="1,2" d="M70 280l880 0"/>
<text stroke="none" fill="white" font-size="16" x="18" y="288">
200.0
</text>
<path stroke="white" stroke-dasharray="1,2" d="M70 174l880 0"/>
<text stroke="none" fill="white" font-size="16" x="18" y="182">
250.0
</text>
<path stroke="white" stroke-dasharray="1,2" d="M70 68l880 0"/>
<text stroke="none" fill="white" font-size="16" x="18" y="76">
300.0
</text>
<text stroke="none" fill="white" font-size="16" x="10" y="32">
mA
</text>
<path stroke="red" d="M440 23l44 0"/>
<text stroke="none" fill="white" font-size="16" x="494" y="32">
-i(vds)
</text>
<path stroke="red" d="M70 704l880 0M70 704l880 0M70 704l880 0M70 704l880 0M70 704l11 -1 231 0 11 1 319 0 11 -1 297 0M70 704l22 -2 11 0 11 -1 121 0 11 1 77 0 11 1 275 0 11 -1 330 0M70 704l11 -3 11 -2 22 -2 11 0 11 -1 22 0 11 -1 22 0 11 1 22 0"/>
<path stroke="red" d="M224 696l11 1 22 0 11 1 11 0 11 1 44 0 11 1 231 0 11 -1 121 0 11 -1 110 0 11 -1 99 0 11 -1M70 704l11 -7 11 -4 11 -3 11 -2 44 -4 55 0 22 2 11 0 22 2 11 0 22 2 11 0 11 1 22 0 11 1 165 0 11 -1 44 0 11 -1 44 0 11 -1 33 0 11 -1"/>
<path stroke="red" d="M686 688l33 0 11 -1 22 0 11 -1 33 0 11 -1 22 0 11 -1 33 0 11 -1 22 0 11 -1 22 0 11 -1M70 704l11 -13 11 -8 11 -6 11 -4 11 -3 33 -6 22 -2 44 0 33 3 11 2 44 4 11 0 22 2 22 0 11 1 77 0 11 -1 22 0 11 -1 11 0 11 -1 11 0 11 -1"/>
<path stroke="red" d="M543 670l11 0 11 -1 11 0 11 -1 11 0 11 -1 11 0 22 -2 11 0 22 -2 11 0 33 -3 11 0 22 -2 11 0 33 -3 11 0 44 -4 11 0 44 -4 11 0 33 -3M70 704l11 -19 11 -15 11 -12 11 -8 11 -6 22 -8 11 -3 22 -4 33 -3 11 0 11 1 11 0 11 1 11 2 33 3"/>
<path stroke="red" d="M301 633l11 2 11 1 11 0 22 2 66 0 11 -1 11 0 11 -1 11 0 99 -9 11 -2 33 -3 11 -2 11 -1 11 -2 11 -1 11 -2 11 -1 11 -2 11 -1 11 -2 11 -1 11 -2 11 -1 11 -2 11 -1 22 -4 11 -1 22 -4 11 -1 22 -4 11 -1 22 -4 11 -1 33 -6 11 -1 11 -2"/>
<path stroke="red" d="M70 704l11 -26 11 -22 11 -18 11 -15 11 -11 11 -8 11 -7 11 -5 11 -4 33 -9 11 -1 11 -2 11 0 11 -1 11 1 11 0 55 5 11 0 11 1 11 0 11 1 11 -1 22 0 66 -6 11 -2 11 -1 33 -6 11 -1 11 -2 11 -3 44 -8 11 -3 22 -4 11 -3 11 -2 11 -3"/>
<path stroke="red" d="M664 538l22 -4 11 -3 11 -2 11 -3 11 -2 11 -3 11 -2 22 -6 11 -2 11 -3 11 -2 11 -3 22 -4 11 -3 11 -2 11 -3 11 -2 11 -3 22 -4 11 -3 22 -4M70 704l11 -31 11 -29 11 -25 11 -22 11 -18 11 -15 11 -11 11 -9 11 -7 22 -10 11 -4 22 -6"/>
<path stroke="red" d="M224 517l22 -4 33 -3 22 0 11 1 44 0 11 -1 11 0 33 -3 11 -2 11 -1 44 -8 11 -3 11 -2 11 -3 11 -2 33 -9 11 -2 44 -12 11 -4 132 -36 11 -2 33 -9 11 -2 11 -3 11 -2 11 -3 11 -2 11 -3 22 -4 11 -3 55 -10M70 704l11 -35 11 -34 11 -31"/>
<path stroke="red" d="M103 604l11 -28 11 -26 11 -22 11 -18 11 -15 11 -11 11 -9 11 -8 11 -6 11 -5 33 -12 11 -2 11 -3 11 -2 99 -9 11 -2 11 -1 44 -8 11 -3 11 -2 88 -24 11 -4 44 -12 11 -4 88 -24 11 -2 11 -3 11 -2 11 -3 11 -2 11 -3 99 -18 11 -1 11 -2"/>
<path stroke="red" d="M895 308l11 -1 11 -2 11 -1 11 -2 11 -1M70 704l11 -38 11 -37 11 -36 11 -33 11 -32 11 -28 11 -26 11 -22 11 -19 11 -14 11 -12 11 -9 11 -8 11 -6 22 -10 22 -8 22 -6 11 -2 11 -3 22 -4 11 -1 88 -16 22 -6 11 -2 154 -42 11 -2 22 -6"/>
<path stroke="red" d="M653 276l22 -4 11 -3 44 -8 11 -1 22 -4 11 -1 11 -2 22 -2 11 -2 44 -4 11 0 33 -3 11 0 11 -1 11 0 11 -1M70 704l22 -80 11 -38 11 -37 11 -36 11 -33 11 -32 11 -29 11 -26 11 -22 11 -19 11 -15 11 -11 11 -9 11 -8 33 -15 33 -12 22 -6"/>
<path stroke="red" d="M323 276l11 -2 11 -3 22 -4 11 -3 22 -4 11 -3 11 -2 11 -3 11 -2 11 -3 11 -2 11 -3 11 -2 22 -6 11 -2 11 -3 11 -2 11 -3 11 -2 11 -3 66 -12 11 -1 11 -2 22 -2 11 -2 33 -3 11 0 22 -2 11 0 11 -1 22 0 11 -1 66 0 11 1 33 0 11 1 11 0"/>
<path stroke="red" d="M70 704l11 -42 11 -41 11 -40 22 -78 11 -37 11 -36 11 -34 11 -32 11 -29 11 -26 11 -22 11 -19 11 -15 11 -11 11 -8 11 -7 22 -10 22 -8 55 -15 11 -2 11 -3 22 -4 11 -3 44 -8 11 -3 44 -8 11 -1 33 -6 22 -2 11 -2 44 -4 11 0 11 -1"/>
<path stroke="red" d="M653 147l22 0 11 -1 44 0 11 1 11 0 11 1 11 0 11 1 11 0 22 2 11 0 110 10 11 2M70 704l11 -42 11 -43 33 -123 22 -78 11 -37 11 -36 11 -34 11 -32 11 -29 11 -26 11 -23 11 -18 11 -14 11 -11 11 -7 11 -6 11 -5 33 -9 11 -2 11 -3 11 -2"/>
<path stroke="red" d="M356 124l11 -3 44 -8 11 -1 22 -4 22 -2 11 -2 55 -5 11 0 11 -1 22 0 11 -1 11 0 11 1 22 0 11 1 11 0 77 7 11 2 22 2 11 2 11 1 11 2 11 1 22 4 11 1 33 6 11 1 66 12"/>
</svg>
