<?xml version="1.0" standalone="yes"?>
<!DOCTYPE svg PUBLIC "-//W3C//DTD SVG 1.1//EN"
 "http://www.w3.org/Graphics/SVG/1.1/DTD/svg11.dtd">
<svg xmlns="http://www.w3.org/2000/svg" version="1.1"
  width="100%" height="100%" viewBox="0 0 1024 768"
  style="fill: none; font-family: Helvetica;
 font: Helvetica;
">

<!-- Creator: NGspice -->

<rect x="0" y="0" width="1024" height="768" fill="black" stroke="none"/>
<text stroke="none" fill="white" font-size="16" x="358" y="752">
v-sweep
</text>
<text stroke="none" fill="white" font-size="16" x="10" y="16">
dc1: 2x250um GaN HEMT: Ids vs Vds
</text>
<path stroke="white" d="M70 704l0 -638"/>
<text stroke="none" fill="white" font-size="16" x="55" y="728">
0.0
</text>
<path stroke="white" stroke-dasharray="1,2" d="M180 704l0 -638"/>
<text stroke="none" fill="white" font-size="16" x="165" y="728">
5.0
</text>
<path stroke="white" stroke-dasharray="1,2" d="M290 704l0 -638"/>
<text stroke="none" fill="white" font-size="16" x="270" y="728">
10.0
</text>
<path stroke="white" stroke-dasharray="1,2" d="M400 704l0 -638"/>
<text stroke="none" fill="white" font-size="16" x="380" y="728">
15.0
</text>
<path stroke="white" stroke-dasharray="1,2" d="M510 704l0 -638"/>
<text stroke="none" fill="white" font-size="16" x="490" y="728">
20.0
</text>
<path stroke="white" stroke-dasharray="1,2" d="M620 704l0 -638"/>
<text stroke="none" fill="white" font-size="16" x="600" y="728">
25.0
</text>
<path stroke="white" stroke-dasharray="1,2" d="M730 704l0 -638"/>
<text stroke="none" fill="white" font-size="16" x="710" y="728">
30.0
</text>
<path stroke="white" stroke-dasharray="1,2" d="M840 704l0 -638"/>
<text stroke="none" fill="white" font-size="16" x="820" y="728">
35.0
</text>
<path stroke="white" stroke-dasharray="1,2" d="M950 704l0 -638"/>
<text stroke="none" fill="white" font-size="16" x="930" y="728">
40.0
</text>
<text stroke="none" fill="white" font-size="16" x="614" y="752">
V
</text>
<path stroke="white" d="M70 704l880 0"/>
<text stroke="none" fill="white" font-size="16" x="28" y="712">
-0.0
</text>
<path stroke="white" stroke-dasharray="1,2" d="M70 646l880 0"/>
<text stroke="none" fill="white" font-size="16" x="28" y="654">
20.0
</text>
<path stroke="white" stroke-dasharray="1,2" d="M70 588l880 0"/>
<text stroke="none" fill="white" font-size="16" x="28" y="596">
40.0
</text>
<path stroke="white" stroke-dasharray="1,2" d="M70 530l880 0"/>
<text stroke="none" fill="white" font-size="16" x="28" y="538">
60.0
</text>
<path stroke="white" stroke-dasharray="1,2" d="M70 472l880 0"/>
<text stroke="none" fill="white" font-size="16" x="28" y="480">
80.0
</text>
<path stroke="white" stroke-dasharray="1,2" d="M70 414l880 0"/>
<text stroke="none" fill="white" font-size="16" x="18" y="422">
100.0
</text>
<path stroke="white" stroke-dasharray="1,2" d="M70 356l880 0"/>
<text stroke="none" fill="white" font-size="16" x="18" y="364">
120.0
</text>
<path stroke="white" stroke-dasharray="1,2" d="M70 298l880 0"/>
<text stroke="none" fill="white" font-size="16" x="18" y="306">
140.0
</text>
<path stroke="white" stroke-dasharray="1,2" d="M70 240l880 0"/>
<text stroke="none" fill="white" font-size="16" x="18" y="248">
160.0
</text>
<path stroke="white" stroke-dasharray="1,2" d="M70 182l880 0"/>
<text stroke="none" fill="white" font-size="16" x="18" y="190">
180.0
</text>
<path stroke="white" stroke-dasharray="1,2" d="M70 124l880 0"/>
<text stroke="none" fill="white" font-size="16" x="18" y="132">
200.0
</text>
<path stroke="white" stroke-dasharray="1,2" d="M70 66l880 0"/>
<text stroke="none" fill="white" font-size="16" x="18" y="74">
220.0
</text>
<text stroke="none" fill="white" font-size="16" x="10" y="32">
mA
</text>
<path stroke="red" d="M440 23l44 0"/>
<text stroke="none" fill="white" font-size="16" x="494" y="32">
-i(vds)
</text>
<path stroke="red" d="M70 704l880 0M70 704l880 0M70 704l880 0M70 704l880 0M70 704l11 0 11 -1 198 0 11 1 418 0 11 -1 220 0M70 704l22 -2 22 0 11 -1 88 0 11 1 77 0 11 1 363 0 11 -1 264 0M70 704l11 -3 11 -2 11 -1 11 0 11 -1 11 0 11 -1 55 0 11 1 22 0"/>
<path stroke="red" d="M235 697l11 1 22 0 11 1 33 0 11 1 319 0 11 -1 132 0 11 -1 110 0 11 -1 33 0M70 704l11 -7 11 -4 22 -4 33 -3 11 0 11 -1 33 0 11 1 11 0 22 2 11 0 22 2 11 0 11 1 11 0 11 1 22 0 11 1 176 0 11 -1 44 0 11 -1 44 0 11 -1 33 0 11 -1"/>
<path stroke="red" d="M697 689l44 0 11 -1 33 0 11 -1 33 0 11 -1 33 0 11 -1 22 0 11 -1 33 0M70 704l11 -13 11 -8 11 -6 22 -6 11 -2 11 -1 11 -2 11 -1 11 0 11 -1 11 0 11 1 11 0 99 9 11 0 11 1 11 0 11 1 99 0 11 -1 22 0 11 -1 11 0 11 -1 11 0 11 -1"/>
<path stroke="red" d="M554 672l11 0 11 -1 11 0 11 -1 11 0 11 -1 11 0 11 -1 11 0 22 -2 11 0 11 -1 11 0 22 -2 11 0 22 -2 11 0 22 -2 11 0 22 -2 11 0 22 -2 11 0 22 -2 11 0 33 -3 11 0M70 704l11 -21 11 -15 11 -11 11 -8 11 -5 11 -4 11 -3 33 -6 22 -2"/>
<path stroke="red" d="M202 629l22 0 44 4 11 2 66 6 22 0 11 1 22 0 11 -1 22 0 11 -1 11 0 22 -2 11 0 66 -6 11 -2 44 -4 11 -2 33 -3 11 -2 22 -2 11 -2 11 -1 11 -2 22 -2 11 -2 11 -1 11 -2 22 -2 11 -2 11 -1 11 -2 22 -2 11 -2 11 -1 11 -2 22 -2 11 -2"/>
<path stroke="red" d="M917 587l11 -1 11 -2 11 -1M70 704l11 -30 11 -25 11 -19 11 -13 11 -10 11 -7 22 -10 33 -9 11 -2 11 -1 11 0 11 -1 11 1 11 0 77 7 55 0 11 -1 11 0 33 -3 11 -2 11 -1 11 -2 11 -1 22 -4 11 -1 77 -14 11 -3 55 -10 11 -3 44 -8 11 -3"/>
<path stroke="red" d="M730 529l198 -36 11 -1 11 -2M70 704l11 -40 11 -34 11 -28 11 -22 11 -17 11 -12 11 -10 22 -12 11 -5 11 -4 22 -6 11 -2 33 -3 33 0 11 1 55 0 55 -5 77 -14 11 -3 11 -2 22 -6 11 -2 33 -9 11 -2 33 -9 11 -2 22 -6 11 -2 22 -6 11 -2"/>
<path stroke="red" d="M697 440l11 -3 22 -4 11 -3 22 -4 11 -3 88 -16 11 -1 33 -6 11 -1 11 -2 11 -1 11 -2M70 704l11 -48 11 -43 11 -38 11 -32 11 -26 11 -20 11 -15 11 -11 11 -8 11 -7 11 -6 33 -12 11 -3 33 -6 33 -3 11 0 55 -5 22 -4 11 -1 11 -2 11 -3"/>
<path stroke="red" d="M422 411l22 -4 22 -6 11 -2 66 -18 11 -2 44 -12 11 -2 22 -6 11 -2 11 -3 22 -4 11 -3 77 -14 11 -1 22 -4 11 -1 11 -2 22 -2 11 -2 33 -3 11 -2 55 -5M70 704l11 -54 11 -50 11 -47 11 -41 11 -36 11 -30 11 -23 11 -18 11 -13 11 -10"/>
<path stroke="red" d="M180 382l11 -7 22 -12 33 -12 11 -3 11 -2 11 -3 11 -2 11 -1 22 -4 11 -1 77 -14 11 -3 11 -2 11 -3 11 -2 22 -6 11 -2 22 -6 11 -2 11 -3 11 -2 11 -3 11 -2 11 -3 77 -14 11 -1 22 -4 22 -2 11 -2 99 -9 11 0 22 -2 11 0 11 -1 11 0"/>
<path stroke="red" d="M884 247l11 -1 11 0 11 -1 11 0 11 -1 11 0M70 704l11 -58 11 -57 11 -53 11 -49 11 -44 11 -40 11 -33 11 -26 11 -21 11 -15 11 -11 11 -8 11 -7 11 -5 33 -12 33 -9 33 -6 11 -3 88 -16 11 -3 121 -22 11 -1 11 -2 33 -3 11 -2 22 -2"/>
<path stroke="red" d="M642 196l11 0 33 -3 11 0 11 -1 11 0 11 -1 33 0 11 -1 99 0 11 1 44 0 11 1 11 0M70 704l11 -62 11 -60 11 -58 11 -55 11 -52 11 -47 11 -42 11 -36 11 -30 11 -23 11 -17 11 -13 11 -8 11 -6 11 -5 11 -4 44 -12 11 -2 11 -3 44 -8 11 -1"/>
<path stroke="red" d="M367 160l33 -6 11 -1 11 -2 11 -1 11 -2 11 -1 11 -2 88 -8 11 0 11 -1 22 0 11 -1 44 0 11 1 33 0 11 1 11 0 11 1 11 0 11 1 11 0 11 1 11 0 22 2 11 0 33 3 11 0 44 4 11 0 33 3M70 704l11 -64 11 -63 11 -61 11 -60 11 -57 11 -53 11 -50"/>
<path stroke="red" d="M147 296l11 -45 11 -39 11 -32 11 -26 11 -19 11 -13 11 -9 11 -6 11 -3 11 -4 33 -6 11 -1 22 -4 22 -2 11 -2 44 -4 11 0 22 -2 11 0 11 -1 88 0 11 1 11 0 11 1 11 0 121 11 11 2 33 3 11 2 22 2 11 2 11 1 11 2 22 2 11 2 11 1 11 2"/>
<path stroke="red" d="M873 112l22 2 11 2 11 1 11 2 11 1 11 2"/>
</svg>
